<svg xmlns="http://www.w3.org/2000/svg" viewBox="0 0 400 300" width="400" height="300">
  <rect width="400" height="300" fill="#0e1525"/>

  <!-- Header bar -->
  <rect x="0" y="0" width="400" height="36" fill="rgba(0,26,77,0.5)"/>
  <rect x="18" y="12" width="40" height="4" rx="1" fill="rgba(232,228,220,0.6)"/>
  <rect x="18" y="20" width="24" height="3" rx="1" fill="rgba(15,168,203,0.5)"/>
  <!-- Header right items -->
  <circle cx="350" cy="18" r="8" fill="rgba(15,168,203,0.15)" stroke="rgba(15,168,203,0.3)" stroke-width="1"/>
  <rect x="364" y="14" width="18" height="4" rx="2" fill="rgba(232,57,30,0.5)"/>
  <circle cx="344" cy="18" r="3" fill="rgba(232,57,30,0.7)"/>

  <!-- Left sidebar -->
  <rect x="0" y="36" width="52" height="264" fill="rgba(0,26,77,0.25)"/>
  <line x1="52" y1="36" x2="52" y2="300" stroke="rgba(255,255,255,0.06)" stroke-width="1"/>
  <!-- Sidebar icons -->
  <rect x="16" y="54" width="20" height="3" rx="1" fill="rgba(15,168,203,0.7)"/>
  <rect x="16" y="60" width="20" height="3" rx="1" fill="rgba(15,168,203,0.7)"/>
  <rect x="16" y="66" width="12" height="3" rx="1" fill="rgba(15,168,203,0.7)"/>
  <rect x="16" y="86" width="20" height="3" rx="1" fill="rgba(255,255,255,0.2)"/>
  <rect x="16" y="92" width="14" height="3" rx="1" fill="rgba(255,255,255,0.2)"/>
  <rect x="16" y="110" width="20" height="3" rx="1" fill="rgba(255,255,255,0.2)"/>
  <rect x="16" y="116" width="18" height="3" rx="1" fill="rgba(255,255,255,0.2)"/>
  <rect x="16" y="134" width="20" height="3" rx="1" fill="rgba(255,255,255,0.2)"/>
  <rect x="16" y="140" width="10" height="3" rx="1" fill="rgba(255,255,255,0.2)"/>
  <!-- Active indicator -->
  <rect x="0" y="50" width="3" height="22" rx="1" fill="#0fa8cb"/>

  <!-- KPI cards row -->
  <rect x="64" y="46" width="82" height="52" rx="5" fill="rgba(255,255,255,0.03)" stroke="rgba(255,255,255,0.07)" stroke-width="1"/>
  <rect x="73" y="55" width="32" height="3" rx="1" fill="rgba(15,168,203,0.5)"/>
  <rect x="73" y="63" width="50" height="9" rx="2" fill="rgba(232,228,220,0.65)"/>
  <rect x="73" y="76" width="28" height="3" rx="1" fill="rgba(15,168,203,0.35)"/>
  <polygon points="108,76 118,76 113,71" fill="rgba(15,168,203,0.6)"/>

  <rect x="154" y="46" width="82" height="52" rx="5" fill="rgba(255,255,255,0.03)" stroke="rgba(255,255,255,0.07)" stroke-width="1"/>
  <rect x="163" y="55" width="44" height="3" rx="1" fill="rgba(232,57,30,0.5)"/>
  <rect x="163" y="63" width="42" height="9" rx="2" fill="rgba(232,228,220,0.65)"/>
  <rect x="163" y="76" width="22" height="3" rx="1" fill="rgba(232,57,30,0.35)"/>
  <polygon points="196,79 206,79 201,74" fill="rgba(232,57,30,0.6)" transform="rotate(180,201,76.5)"/>

  <rect x="244" y="46" width="82" height="52" rx="5" fill="rgba(255,255,255,0.03)" stroke="rgba(255,255,255,0.07)" stroke-width="1"/>
  <rect x="253" y="55" width="38" height="3" rx="1" fill="rgba(232,228,220,0.35)"/>
  <rect x="253" y="63" width="46" height="9" rx="2" fill="rgba(232,228,220,0.65)"/>
  <rect x="253" y="76" width="32" height="3" rx="1" fill="rgba(15,168,203,0.35)"/>

  <rect x="334" y="46" width="50" height="52" rx="5" fill="rgba(15,168,203,0.06)" stroke="rgba(15,168,203,0.2)" stroke-width="1"/>
  <circle cx="359" cy="72" r="16" fill="none" stroke="rgba(15,168,203,0.2)" stroke-width="8"/>
  <circle cx="359" cy="72" r="16" fill="none" stroke="#0fa8cb" stroke-width="8" stroke-dasharray="60 42" stroke-linecap="round" transform="rotate(-90 359 72)"/>

  <!-- Main chart area -->
  <rect x="64" y="108" width="222" height="120" rx="5" fill="rgba(255,255,255,0.02)" stroke="rgba(255,255,255,0.07)" stroke-width="1"/>
  <!-- Chart grid lines -->
  <line x1="78" y1="128" x2="274" y2="128" stroke="rgba(255,255,255,0.05)" stroke-width="0.8" stroke-dasharray="4,4"/>
  <line x1="78" y1="148" x2="274" y2="148" stroke="rgba(255,255,255,0.05)" stroke-width="0.8" stroke-dasharray="4,4"/>
  <line x1="78" y1="168" x2="274" y2="168" stroke="rgba(255,255,255,0.05)" stroke-width="0.8" stroke-dasharray="4,4"/>
  <line x1="78" y1="188" x2="274" y2="188" stroke="rgba(255,255,255,0.05)" stroke-width="0.8" stroke-dasharray="4,4"/>
  <!-- Chart line -->
  <polyline points="78,198 110,175 142,182 174,155 206,161 238,138 270,143" fill="none" stroke="#0fa8cb" stroke-width="2" stroke-linecap="round" stroke-linejoin="round"/>
  <!-- Area fill -->
  <polygon points="78,198 110,175 142,182 174,155 206,161 238,138 270,143 270,208 78,208" fill="rgba(15,168,203,0.07)"/>
  <!-- Second line -->
  <polyline points="78,210 110,204 142,196 174,188 206,180 238,172 270,168" fill="none" stroke="rgba(232,57,30,0.5)" stroke-width="1.5" stroke-linecap="round" stroke-linejoin="round"/>
  <!-- Chart label -->
  <rect x="74" y="114" width="36" height="3" rx="1" fill="rgba(232,228,220,0.35)"/>
  <!-- Legend -->
  <rect x="74" y="218" width="10" height="3" rx="1" fill="#0fa8cb"/>
  <rect x="88" y="218" width="28" height="3" rx="1" fill="rgba(232,228,220,0.25)"/>
  <rect x="130" y="218" width="10" height="3" rx="1" fill="rgba(232,57,30,0.5)"/>
  <rect x="144" y="218" width="22" height="3" rx="1" fill="rgba(232,228,220,0.25)"/>

  <!-- Bar chart right -->
  <rect x="296" y="108" width="88" height="120" rx="5" fill="rgba(255,255,255,0.02)" stroke="rgba(255,255,255,0.07)" stroke-width="1"/>
  <rect x="305" y="114" width="36" height="3" rx="1" fill="rgba(232,228,220,0.35)"/>
  <!-- Bars -->
  <rect x="308" y="165" width="14" height="50" rx="2" fill="rgba(15,168,203,0.4)"/>
  <rect x="328" y="148" width="14" height="67" rx="2" fill="rgba(15,168,203,0.6)"/>
  <rect x="348" y="155" width="14" height="60" rx="2" fill="rgba(15,168,203,0.5)"/>
  <rect x="368" y="138" width="8" height="77" rx="2" fill="#0fa8cb"/>
  <!-- Bar labels -->
  <rect x="309" y="218" width="12" height="2" rx="1" fill="rgba(232,228,220,0.2)"/>
  <rect x="329" y="218" width="12" height="2" rx="1" fill="rgba(232,228,220,0.2)"/>
  <rect x="349" y="218" width="12" height="2" rx="1" fill="rgba(232,228,220,0.2)"/>
  <rect x="369" y="218" width="8" height="2" rx="1" fill="rgba(232,228,220,0.2)"/>

  <!-- Bottom status bar -->
  <rect x="64" y="238" width="320" height="28" rx="5" fill="rgba(255,255,255,0.02)" stroke="rgba(255,255,255,0.05)" stroke-width="1"/>
  <rect x="74" y="248" width="52" height="3" rx="1" fill="rgba(232,228,220,0.2)"/>
  <rect x="74" y="255" width="32" height="3" rx="1" fill="rgba(232,228,220,0.12)"/>
  <rect x="240" y="248" width="40" height="8" rx="2" fill="rgba(15,168,203,0.12)" stroke="rgba(15,168,203,0.25)" stroke-width="0.8"/>
  <rect x="248" y="251" width="22" height="3" rx="1" fill="rgba(15,168,203,0.5)"/>
</svg>
