<svg xmlns="http://www.w3.org/2000/svg" viewBox="0 0 400 300" width="400" height="300">
  <rect width="400" height="300" fill="#0e1525"/>

  <!-- Background geometry -->
  <radialGradient id="portalGlow" cx="50%" cy="42%" r="40%">
    <stop offset="0%" stop-color="#0fa8cb" stop-opacity="0.07"/>
    <stop offset="100%" stop-color="#0e1525" stop-opacity="0"/>
  </radialGradient>
  <rect width="400" height="300" fill="url(#portalGlow)"/>

  <!-- Top navigation bar -->
  <rect x="0" y="0" width="400" height="32" fill="rgba(0,26,77,0.45)"/>
  <line x1="0" y1="32" x2="400" y2="32" stroke="rgba(255,255,255,0.07)" stroke-width="1"/>
  <!-- Nav logo area -->
  <circle cx="22" cy="16" r="8" fill="none" stroke="#0fa8cb" stroke-width="1.2"/>
  <circle cx="22" cy="16" r="3" fill="#e8391e"/>
  <rect x="36" y="12" width="28" height="4" rx="1" fill="rgba(232,228,220,0.6)"/>
  <rect x="36" y="19" width="16" height="2.5" rx="1" fill="rgba(15,168,203,0.5)"/>
  <!-- Nav links right -->
  <rect x="260" y="14" width="22" height="3" rx="1" fill="rgba(232,228,220,0.2)"/>
  <rect x="290" y="14" width="22" height="3" rx="1" fill="rgba(232,228,220,0.2)"/>
  <rect x="322" y="10" width="36" height="12" rx="3" fill="rgba(15,168,203,0.15)" stroke="rgba(15,168,203,0.35)" stroke-width="1"/>
  <rect x="330" y="15" width="20" height="3" rx="1" fill="rgba(15,168,203,0.6)"/>

  <!-- Left sidebar: module tree -->
  <rect x="0" y="32" width="120" height="268" fill="rgba(0,26,77,0.18)"/>
  <line x1="120" y1="32" x2="120" y2="300" stroke="rgba(255,255,255,0.06)" stroke-width="1"/>

  <!-- Sidebar header -->
  <rect x="12" y="44" width="50" height="4" rx="1" fill="rgba(232,228,220,0.35)"/>
  <line x1="12" y1="55" x2="108" y2="55" stroke="rgba(255,255,255,0.06)" stroke-width="1"/>

  <!-- Sidebar menu items -->
  <rect x="0" y="62" width="3" height="18" rx="1" fill="#0fa8cb"/>
  <rect x="18" y="66" width="6" height="6" rx="1" fill="rgba(15,168,203,0.35)"/>
  <rect x="30" y="67" width="52" height="4" rx="1" fill="rgba(232,228,220,0.6)"/>

  <rect x="18" y="88" width="6" height="6" rx="1" fill="rgba(255,255,255,0.12)"/>
  <rect x="30" y="89" width="44" height="4" rx="1" fill="rgba(232,228,220,0.3)"/>

  <rect x="18" y="108" width="6" height="6" rx="1" fill="rgba(255,255,255,0.12)"/>
  <rect x="30" y="109" width="60" height="4" rx="1" fill="rgba(232,228,220,0.3)"/>

  <rect x="18" y="128" width="6" height="6" rx="1" fill="rgba(255,255,255,0.12)"/>
  <rect x="30" y="129" width="38" height="4" rx="1" fill="rgba(232,228,220,0.3)"/>

  <!-- Sub-items -->
  <rect x="38" y="148" width="4" height="4" rx="1" fill="rgba(15,168,203,0.2)"/>
  <rect x="48" y="149" width="48" height="3" rx="1" fill="rgba(232,228,220,0.2)"/>
  <rect x="38" y="158" width="4" height="4" rx="1" fill="rgba(15,168,203,0.2)"/>
  <rect x="48" y="159" width="36" height="3" rx="1" fill="rgba(232,228,220,0.2)"/>
  <rect x="38" y="168" width="4" height="4" rx="1" fill="rgba(15,168,203,0.2)"/>
  <rect x="48" y="169" width="52" height="3" rx="1" fill="rgba(232,228,220,0.2)"/>

  <rect x="18" y="186" width="6" height="6" rx="1" fill="rgba(255,255,255,0.12)"/>
  <rect x="30" y="187" width="50" height="4" rx="1" fill="rgba(232,228,220,0.3)"/>
  <rect x="18" y="206" width="6" height="6" rx="1" fill="rgba(255,255,255,0.12)"/>
  <rect x="30" y="207" width="42" height="4" rx="1" fill="rgba(232,228,220,0.3)"/>

  <!-- Sidebar user profile bottom -->
  <line x1="12" y1="268" x2="108" y2="268" stroke="rgba(255,255,255,0.06)" stroke-width="1"/>
  <circle cx="24" cy="282" r="8" fill="rgba(0,26,77,0.6)" stroke="rgba(15,168,203,0.3)" stroke-width="1"/>
  <rect x="38" y="278" width="44" height="3" rx="1" fill="rgba(232,228,220,0.4)"/>
  <rect x="38" y="284" width="28" height="2.5" rx="1" fill="rgba(15,168,203,0.35)"/>

  <!-- Main content area -->
  <!-- Page title + breadcrumb -->
  <rect x="138" y="42" width="60" height="3" rx="1" fill="rgba(232,228,220,0.2)"/>
  <rect x="201" y="42" width="4" height="3" rx="1" fill="rgba(255,255,255,0.15)"/>
  <rect x="208" y="42" width="44" height="3" rx="1" fill="rgba(232,228,220,0.35)"/>
  <rect x="138" y="52" width="120" height="8" rx="2" fill="rgba(232,228,220,0.55)"/>

  <!-- Stats row -->
  <rect x="138" y="72" width="60" height="44" rx="4" fill="rgba(255,255,255,0.03)" stroke="rgba(255,255,255,0.07)" stroke-width="1"/>
  <rect x="147" y="80" width="28" height="3" rx="1" fill="rgba(15,168,203,0.45)"/>
  <rect x="147" y="87" width="38" height="7" rx="1" fill="rgba(232,228,220,0.55)"/>
  <rect x="147" y="98" width="20" height="3" rx="1" fill="rgba(15,168,203,0.3)"/>

  <rect x="206" y="72" width="60" height="44" rx="4" fill="rgba(255,255,255,0.03)" stroke="rgba(255,255,255,0.07)" stroke-width="1"/>
  <rect x="215" y="80" width="34" height="3" rx="1" fill="rgba(232,57,30,0.4)"/>
  <rect x="215" y="87" width="30" height="7" rx="1" fill="rgba(232,228,220,0.55)"/>
  <rect x="215" y="98" width="24" height="3" rx="1" fill="rgba(232,57,30,0.3)"/>

  <rect x="274" y="72" width="60" height="44" rx="4" fill="rgba(255,255,255,0.03)" stroke="rgba(255,255,255,0.07)" stroke-width="1"/>
  <rect x="283" y="80" width="22" height="3" rx="1" fill="rgba(232,228,220,0.3)"/>
  <rect x="283" y="87" width="42" height="7" rx="1" fill="rgba(232,228,220,0.55)"/>
  <rect x="283" y="98" width="16" height="3" rx="1" fill="rgba(232,228,220,0.25)"/>

  <rect x="342" y="72" width="40" height="44" rx="4" fill="rgba(15,168,203,0.06)" stroke="rgba(15,168,203,0.2)" stroke-width="1"/>
  <rect x="350" y="80" width="24" height="3" rx="1" fill="rgba(15,168,203,0.4)"/>
  <rect x="350" y="88" width="20" height="6" rx="1" fill="rgba(15,168,203,0.5)"/>
  <rect x="350" y="98" width="16" height="3" rx="1" fill="rgba(15,168,203,0.3)"/>

  <!-- Content table -->
  <rect x="138" y="128" width="244" height="120" rx="4" fill="rgba(255,255,255,0.02)" stroke="rgba(255,255,255,0.07)" stroke-width="1"/>
  <!-- Table header -->
  <rect x="138" y="128" width="244" height="20" rx="4" fill="rgba(0,26,77,0.3)"/>
  <rect x="148" y="136" width="32" height="3" rx="1" fill="rgba(232,228,220,0.35)"/>
  <rect x="230" y="136" width="28" height="3" rx="1" fill="rgba(232,228,220,0.25)"/>
  <rect x="298" y="136" width="22" height="3" rx="1" fill="rgba(232,228,220,0.25)"/>
  <rect x="350" y="136" width="18" height="3" rx="1" fill="rgba(232,228,220,0.25)"/>
  <!-- Table rows -->
  <line x1="138" y1="148" x2="382" y2="148" stroke="rgba(255,255,255,0.05)" stroke-width="1"/>
  <rect x="148" y="153" width="56" height="3" rx="1" fill="rgba(232,228,220,0.4)"/>
  <rect x="232" y="153" width="32" height="3" rx="1" fill="rgba(232,228,220,0.25)"/>
  <rect x="300" y="152" width="24" height="5" rx="2" fill="rgba(15,168,203,0.2)" stroke="rgba(15,168,203,0.4)" stroke-width="0.8"/>
  <rect x="352" y="153" width="16" height="3" rx="1" fill="rgba(232,228,220,0.3)"/>

  <line x1="138" y1="164" x2="382" y2="164" stroke="rgba(255,255,255,0.04)" stroke-width="1"/>
  <rect x="148" y="169" width="44" height="3" rx="1" fill="rgba(232,228,220,0.4)"/>
  <rect x="232" y="169" width="44" height="3" rx="1" fill="rgba(232,228,220,0.25)"/>
  <rect x="300" y="168" width="24" height="5" rx="2" fill="rgba(232,57,30,0.15)" stroke="rgba(232,57,30,0.35)" stroke-width="0.8"/>
  <rect x="352" y="169" width="22" height="3" rx="1" fill="rgba(232,228,220,0.3)"/>

  <line x1="138" y1="180" x2="382" y2="180" stroke="rgba(255,255,255,0.04)" stroke-width="1"/>
  <rect x="148" y="185" width="60" height="3" rx="1" fill="rgba(232,228,220,0.4)"/>
  <rect x="232" y="185" width="26" height="3" rx="1" fill="rgba(232,228,220,0.25)"/>
  <rect x="300" y="184" width="24" height="5" rx="2" fill="rgba(15,168,203,0.2)" stroke="rgba(15,168,203,0.4)" stroke-width="0.8"/>
  <rect x="352" y="185" width="14" height="3" rx="1" fill="rgba(232,228,220,0.3)"/>

  <line x1="138" y1="196" x2="382" y2="196" stroke="rgba(255,255,255,0.04)" stroke-width="1"/>
  <rect x="148" y="201" width="38" height="3" rx="1" fill="rgba(232,228,220,0.4)"/>
  <rect x="232" y="201" width="50" height="3" rx="1" fill="rgba(232,228,220,0.25)"/>
  <rect x="300" y="200" width="24" height="5" rx="2" fill="rgba(15,168,203,0.2)" stroke="rgba(15,168,203,0.4)" stroke-width="0.8"/>
  <rect x="352" y="201" width="20" height="3" rx="1" fill="rgba(232,228,220,0.3)"/>

  <line x1="138" y1="212" x2="382" y2="212" stroke="rgba(255,255,255,0.04)" stroke-width="1"/>
  <rect x="148" y="217" width="50" height="3" rx="1" fill="rgba(232,228,220,0.4)"/>
  <rect x="232" y="217" width="34" height="3" rx="1" fill="rgba(232,228,220,0.25)"/>
  <rect x="300" y="216" width="24" height="5" rx="2" fill="rgba(232,228,220,0.1)" stroke="rgba(232,228,220,0.2)" stroke-width="0.8"/>
  <rect x="352" y="217" width="18" height="3" rx="1" fill="rgba(232,228,220,0.3)"/>

  <!-- Action buttons row -->
  <rect x="138" y="258" width="76" height="20" rx="3" fill="rgba(15,168,203,0.12)" stroke="rgba(15,168,203,0.3)" stroke-width="1"/>
  <rect x="148" y="265" width="46" height="3" rx="1" fill="rgba(15,168,203,0.55)"/>
  <rect x="224" y="258" width="50" height="20" rx="3" fill="rgba(255,255,255,0.04)" stroke="rgba(255,255,255,0.1)" stroke-width="1"/>
  <rect x="233" y="265" width="28" height="3" rx="1" fill="rgba(232,228,220,0.35)"/>
</svg>
